<svg width="300" height="300" viewBox="0 0 576 640" xmlns="http://www.w3.org/2000/svg">
    <defs>
        {/* 그라데이션 정의 */}
        <linearGradient id="cartGradient" x1="0%" y1="0%" x2="100%" y2="100%">
            <stop offset="0%" style="stop-color:#A29BFE; stop-opacity:1" />
            <stop offset="100%" style="stop-color:#FD79A8; stop-opacity:1" />
        </linearGradient>

        {/* 그림자 필터 정의 */}
        <filter id="shadow" x="-20%" y="-20%" width="140%" height="140%">
            <feDropShadow dx="10" dy="10" stdDeviation="15" flood-color="#000000" flood-opacity="0.3"/>
        </filter>
    </defs>

    {/* 배경 사각형 */}
    <rect width="576" height="640" fill="url(#cartGradient)"/>

    {/* 카트 아이콘 그룹 */}
    <g transform="scale(0.8) translate(57.6, 115.2)" style="filter:url(#shadow)">
        <path fill="#FFFFFF" d="M0 24C0 10.7 10.7 0 24 0H69.5c22 0 41.5 12.8 50.6 32h411c26.3 0 45.5 25 38.6 50.4l-41 152.3c-8.5 31.4-37 53.3-69.5 53.3H170.7l5.4 28.5c2.2 11.3 12.1 19.5 23.6 19.5H488c13.3 0 24 10.7 24 24s-10.7 24-24 24H199.7c-34.6 0-64.3-24.6-70.7-58.5L77.4 54.5c-.7-3.8-4-6.5-7.9-6.5H24C10.7 48 0 37.3 0 24zM128 464a48 48 0 1 1 96 0 48 48 0 1 1 -96 0zm336-48a48 48 0 1 1 0 96 48 48 0 1 1 0-96z"/>
    </g>

</svg>